<svg xmlns="http://www.w3.org/2000/svg" viewBox="0 0 1280 400" width="1280" height="400" font-family="ui-sans-serif,system-ui,'Segoe UI',Roboto,Arial,sans-serif">
  <defs>
    <radialGradient id="glow" cx="80%" cy="6%" r="62%">
      <stop offset="0" stop-color="#c6f24e" stop-opacity="0.10"/>
      <stop offset="1" stop-color="#100e14" stop-opacity="0"/>
    </radialGradient>
  </defs>
  <rect x="1" y="1" width="1278" height="398" rx="24" fill="#100e14" stroke="#322e3a" stroke-width="2"/>
  <rect x="1" y="1" width="1278" height="398" rx="24" fill="url(#glow)"/>

  <!-- right: a schematic call graph (the signature device) -->
  <g transform="translate(720,38)" font-family="ui-monospace, SFMono-Regular, Menlo, monospace">
    <g stroke="#322e3a" stroke-width="1.5" fill="none">
      <path d="M120 86 H210"/><path d="M270 104 C330 104 320 150 360 168"/>
      <path d="M120 86 C70 86 70 250 150 256"/><path d="M210 256 H300"/>
    </g>
    <path d="M360 192 C360 230 320 250 270 256" stroke="#ff5d5d" stroke-width="1.8" fill="none"/>
    <rect x="44" y="68" width="78" height="38" rx="6" fill="#14121a" stroke="#c6f24e" stroke-width="1.5"/>
    <text x="60" y="92" fill="#e7f6bf" font-size="13">router</text>
    <rect x="206" y="68" width="92" height="38" rx="6" fill="#14121a" stroke="#322e3a" stroke-width="1.5"/>
    <text x="221" y="92" fill="#cfcdd6" font-size="13">resolve</text>
    <rect x="120" y="238" width="92" height="38" rx="6" fill="#14121a" stroke="#322e3a" stroke-width="1.5"/>
    <text x="136" y="262" fill="#cfcdd6" font-size="13">render</text>
    <circle cx="360" cy="180" r="26" fill="none" stroke="#ff5d5d" stroke-width="1" opacity="0.35"/>
    <rect x="318" y="162" width="84" height="38" rx="6" fill="#1f1216" stroke="#ff5d5d" stroke-width="1.8"/>
    <text x="333" y="186" fill="#ffd2d0" font-size="13">login()</text>
    <path d="M404 181 H468" stroke="#ff5d5d" stroke-width="1"/>
    <circle cx="404" cy="181" r="2.5" fill="#ff5d5d"/>
    <text x="430" y="166" fill="#ff5d5d" font-size="12">23 in blast</text>
    <text x="430" y="180" fill="#ff5d5d" font-size="12">radius</text>
    <text x="44" y="54" fill="#6a6775" font-size="11.5">// call graph · src/router</text>
  </g>

  <!-- mark -->
  <g transform="translate(92,74) scale(2.0)">
    <path d="M24.17 8.64 A11 11 0 1 0 24.17 23.36" fill="none" stroke="#c6f24e" stroke-width="4" stroke-linecap="round"/>
    <rect x="22.9" y="11.4" width="4.2" height="9.2" rx="2.1" fill="#c6f24e"/>
  </g>
  <!-- wordmark -->
  <text x="172" y="150" font-size="96" font-weight="800" letter-spacing="-4" fill="#ececee">code<tspan fill="#c6f24e">web</tspan></text>
  <text x="92" y="248" font-size="44" font-weight="800" letter-spacing="-1.4" fill="#ececee">The <tspan fill="#c6f24e">living map</tspan> of your codebase.</text>
  <text x="94" y="300" font-size="20" fill="#9c99a6">Know what exists, and what an edit breaks — before you write.</text>
  <text x="94" y="338" font-size="14" letter-spacing="2.4" fill="#6a6775" font-family="ui-monospace, Menlo, monospace">DETERMINISTIC · READ-ONLY · ZERO-DEPENDENCY</text>
</svg>
