<svg xmlns="http://www.w3.org/2000/svg" viewBox="0 0 840 600" width="840" height="600" role="img" aria-labelledby="title desc">
  <title id="title">Weekly npm download total and daily trend for @ghostlygawd/codeweb</title>
  <desc id="desc">Daily npm package downloads from 2026-07-19 through 2026-09-04. The latest seven completed days have 231 downloads, and the displayed range has 1,454 downloads.</desc>
  <metadata>Generated by scripts/render-acquisition.mjs from npm's public downloads range API. Captured 2026-09-07. Data period: 2026-07-19 to 2026-09-04. Aggregate package-download counts only; no user-level data.</metadata>
  <rect width="840" height="600" fill="#060608"/>
  <rect x="1" y="1" width="838" height="598" fill="none" stroke="#26242C"/>
  <text x="52" y="50" fill="#8A8794" font-family="ui-monospace,SFMono-Regular,Menlo,Consolas,monospace" font-size="17" font-weight="700" letter-spacing="3">PUBLIC NPM SIGNAL</text>
  <text x="52" y="102" fill="#E8E7EE" font-family="ui-monospace,SFMono-Regular,Menlo,Consolas,monospace" font-size="42" font-weight="800">weekly downloads</text>
  <text x="52" y="138" fill="#8A8794" font-family="ui-monospace,SFMono-Regular,Menlo,Consolas,monospace" font-size="20">@ghostlygawd/codeweb · daily trend</text>
  <text x="788" y="92" text-anchor="end" fill="#C6F24E" font-family="ui-monospace,SFMono-Regular,Menlo,Consolas,monospace" font-size="58" font-weight="800">231</text>
  <text x="788" y="128" text-anchor="end" fill="#8A8794" font-family="ui-monospace,SFMono-Regular,Menlo,Consolas,monospace" font-size="17">downloads · last 7 completed days</text>
  <line x1="74" y1="186.0" x2="766" y2="186.0" stroke="#26242C" stroke-dasharray="5 8"/>
  <text x="58" y="192.0" text-anchor="end" fill="#8A8794" font-family="ui-monospace,SFMono-Regular,Menlo,Consolas,monospace" font-size="16">300</text>
  <line x1="74" y1="332.0" x2="766" y2="332.0" stroke="#26242C" stroke-dasharray="5 8"/>
  <text x="58" y="338.0" text-anchor="end" fill="#8A8794" font-family="ui-monospace,SFMono-Regular,Menlo,Consolas,monospace" font-size="16">150</text>
  <line x1="74" y1="478.0" x2="766" y2="478.0" stroke="#26242C" stroke-dasharray="0"/>
  <text x="58" y="484.0" text-anchor="end" fill="#8A8794" font-family="ui-monospace,SFMono-Regular,Menlo,Consolas,monospace" font-size="16">0</text>
  <path d="M 74.0 478 L 74.0,338.8 L 88.7,470.2 L 103.4,474.1 L 118.2,475.1 L 132.9,364.1 L 147.6,443.9 L 162.3,219.1 L 177.1,451.7 L 191.8,469.2 L 206.5,463.4 L 221.2,461.5 L 236.0,470.2 L 250.7,470.2 L 265.4,468.3 L 280.1,470.2 L 294.9,472.2 L 309.6,461.5 L 324.3,464.4 L 339.0,470.2 L 353.7,466.3 L 368.5,469.2 L 383.2,465.3 L 397.9,456.6 L 412.6,456.6 L 427.4,468.3 L 442.1,462.4 L 456.8,478.0 L 471.5,471.2 L 486.3,468.3 L 501.0,312.5 L 515.7,437.1 L 530.4,451.7 L 545.1,464.4 L 559.9,464.4 L 574.6,464.4 L 589.3,459.5 L 604.0,460.5 L 618.8,464.4 L 633.5,462.4 L 648.2,461.5 L 662.9,464.4 L 677.7,462.4 L 692.4,463.4 L 707.1,458.5 L 721.8,468.3 L 736.6,328.1 L 751.3,478.0 L 766.0,462.4 L 766.0 478 Z" fill="#C6F24E" fill-opacity="0.10"/>
  <polyline points="74.0,338.8 88.7,470.2 103.4,474.1 118.2,475.1 132.9,364.1 147.6,443.9 162.3,219.1 177.1,451.7 191.8,469.2 206.5,463.4 221.2,461.5 236.0,470.2 250.7,470.2 265.4,468.3 280.1,470.2 294.9,472.2 309.6,461.5 324.3,464.4 339.0,470.2 353.7,466.3 368.5,469.2 383.2,465.3 397.9,456.6 412.6,456.6 427.4,468.3 442.1,462.4 456.8,478.0 471.5,471.2 486.3,468.3 501.0,312.5 515.7,437.1 530.4,451.7 545.1,464.4 559.9,464.4 574.6,464.4 589.3,459.5 604.0,460.5 618.8,464.4 633.5,462.4 648.2,461.5 662.9,464.4 677.7,462.4 692.4,463.4 707.1,458.5 721.8,468.3 736.6,328.1 751.3,478.0 766.0,462.4" fill="none" stroke="#C6F24E" stroke-width="7" stroke-linejoin="bevel" stroke-linecap="square"/>
  <g><title>2026-07-19: 143 downloads</title><rect x="69.0" y="333.8" width="10" height="10" fill="#C6F24E"/></g>
  <g><title>2026-07-20: 8 downloads</title><rect x="83.7" y="465.2" width="10" height="10" fill="#C6F24E"/></g>
  <g><title>2026-07-21: 4 downloads</title><rect x="98.4" y="469.1" width="10" height="10" fill="#C6F24E"/></g>
  <g><title>2026-07-22: 3 downloads</title><rect x="113.2" y="470.1" width="10" height="10" fill="#C6F24E"/></g>
  <g><title>2026-07-23: 117 downloads</title><rect x="127.9" y="359.1" width="10" height="10" fill="#C6F24E"/></g>
  <g><title>2026-07-24: 35 downloads</title><rect x="142.6" y="438.9" width="10" height="10" fill="#C6F24E"/></g>
  <g><title>2026-07-25: 266 downloads</title><rect x="157.3" y="214.1" width="10" height="10" fill="#C6F24E"/></g>
  <g><title>2026-07-26: 27 downloads</title><rect x="172.1" y="446.7" width="10" height="10" fill="#C6F24E"/></g>
  <g><title>2026-07-27: 9 downloads</title><rect x="186.8" y="464.2" width="10" height="10" fill="#C6F24E"/></g>
  <g><title>2026-07-28: 15 downloads</title><rect x="201.5" y="458.4" width="10" height="10" fill="#C6F24E"/></g>
  <g><title>2026-07-29: 17 downloads</title><rect x="216.2" y="456.5" width="10" height="10" fill="#C6F24E"/></g>
  <g><title>2026-07-30: 8 downloads</title><rect x="231.0" y="465.2" width="10" height="10" fill="#C6F24E"/></g>
  <g><title>2026-07-31: 8 downloads</title><rect x="245.7" y="465.2" width="10" height="10" fill="#C6F24E"/></g>
  <g><title>2026-08-01: 10 downloads</title><rect x="260.4" y="463.3" width="10" height="10" fill="#C6F24E"/></g>
  <g><title>2026-08-02: 8 downloads</title><rect x="275.1" y="465.2" width="10" height="10" fill="#C6F24E"/></g>
  <g><title>2026-08-03: 6 downloads</title><rect x="289.9" y="467.2" width="10" height="10" fill="#C6F24E"/></g>
  <g><title>2026-08-04: 17 downloads</title><rect x="304.6" y="456.5" width="10" height="10" fill="#C6F24E"/></g>
  <g><title>2026-08-05: 14 downloads</title><rect x="319.3" y="459.4" width="10" height="10" fill="#C6F24E"/></g>
  <g><title>2026-08-06: 8 downloads</title><rect x="334.0" y="465.2" width="10" height="10" fill="#C6F24E"/></g>
  <g><title>2026-08-07: 12 downloads</title><rect x="348.7" y="461.3" width="10" height="10" fill="#C6F24E"/></g>
  <g><title>2026-08-08: 9 downloads</title><rect x="363.5" y="464.2" width="10" height="10" fill="#C6F24E"/></g>
  <g><title>2026-08-09: 13 downloads</title><rect x="378.2" y="460.3" width="10" height="10" fill="#C6F24E"/></g>
  <g><title>2026-08-10: 22 downloads</title><rect x="392.9" y="451.6" width="10" height="10" fill="#C6F24E"/></g>
  <g><title>2026-08-11: 22 downloads</title><rect x="407.6" y="451.6" width="10" height="10" fill="#C6F24E"/></g>
  <g><title>2026-08-12: 10 downloads</title><rect x="422.4" y="463.3" width="10" height="10" fill="#C6F24E"/></g>
  <g><title>2026-08-13: 16 downloads</title><rect x="437.1" y="457.4" width="10" height="10" fill="#C6F24E"/></g>
  <g><title>2026-08-14: 0 downloads</title><rect x="451.8" y="473.0" width="10" height="10" fill="#C6F24E"/></g>
  <g><title>2026-08-15: 7 downloads</title><rect x="466.5" y="466.2" width="10" height="10" fill="#C6F24E"/></g>
  <g><title>2026-08-16: 10 downloads</title><rect x="481.3" y="463.3" width="10" height="10" fill="#C6F24E"/></g>
  <g><title>2026-08-17: 170 downloads</title><rect x="496.0" y="307.5" width="10" height="10" fill="#C6F24E"/></g>
  <g><title>2026-08-18: 42 downloads</title><rect x="510.7" y="432.1" width="10" height="10" fill="#C6F24E"/></g>
  <g><title>2026-08-19: 27 downloads</title><rect x="525.4" y="446.7" width="10" height="10" fill="#C6F24E"/></g>
  <g><title>2026-08-20: 14 downloads</title><rect x="540.1" y="459.4" width="10" height="10" fill="#C6F24E"/></g>
  <g><title>2026-08-21: 14 downloads</title><rect x="554.9" y="459.4" width="10" height="10" fill="#C6F24E"/></g>
  <g><title>2026-08-22: 14 downloads</title><rect x="569.6" y="459.4" width="10" height="10" fill="#C6F24E"/></g>
  <g><title>2026-08-23: 19 downloads</title><rect x="584.3" y="454.5" width="10" height="10" fill="#C6F24E"/></g>
  <g><title>2026-08-24: 18 downloads</title><rect x="599.0" y="455.5" width="10" height="10" fill="#C6F24E"/></g>
  <g><title>2026-08-25: 14 downloads</title><rect x="613.8" y="459.4" width="10" height="10" fill="#C6F24E"/></g>
  <g><title>2026-08-26: 16 downloads</title><rect x="628.5" y="457.4" width="10" height="10" fill="#C6F24E"/></g>
  <g><title>2026-08-27: 17 downloads</title><rect x="643.2" y="456.5" width="10" height="10" fill="#C6F24E"/></g>
  <g><title>2026-08-28: 14 downloads</title><rect x="657.9" y="459.4" width="10" height="10" fill="#C6F24E"/></g>
  <g><title>2026-08-29: 16 downloads</title><rect x="672.7" y="457.4" width="10" height="10" fill="#C6F24E"/></g>
  <g><title>2026-08-30: 15 downloads</title><rect x="687.4" y="458.4" width="10" height="10" fill="#C6F24E"/></g>
  <g><title>2026-08-31: 20 downloads</title><rect x="702.1" y="453.5" width="10" height="10" fill="#C6F24E"/></g>
  <g><title>2026-09-01: 10 downloads</title><rect x="716.8" y="463.3" width="10" height="10" fill="#C6F24E"/></g>
  <g><title>2026-09-02: 154 downloads</title><rect x="731.6" y="323.1" width="10" height="10" fill="#C6F24E"/></g>
  <g><title>2026-09-03: 0 downloads</title><rect x="746.3" y="473.0" width="10" height="10" fill="#C6F24E"/></g>
  <g><title>2026-09-04: 16 downloads</title><rect x="759.0" y="455.4" width="14" height="14" fill="#C6F24E"/></g>
  <text x="74" y="512" fill="#8A8794" font-family="ui-monospace,SFMono-Regular,Menlo,Consolas,monospace" font-size="18">2026-07-19</text>
  <text x="766" y="512" text-anchor="end" fill="#E8E7EE" font-family="ui-monospace,SFMono-Regular,Menlo,Consolas,monospace" font-size="18" font-weight="700">2026-09-04</text>
  <text x="52" y="552" fill="#E8E7EE" font-family="ui-monospace,SFMono-Regular,Menlo,Consolas,monospace" font-size="22" font-weight="700">1,454 downloads across 48 completed days shown</text>
  <text x="52" y="582" fill="#8A8794" font-family="ui-monospace,SFMono-Regular,Menlo,Consolas,monospace" font-size="16">through 2026-09-04 · public npm API · package retrievals, not users · refreshed weekly</text>
</svg>
