<svg xmlns="http://www.w3.org/2000/svg" viewBox="0 0 840 600" width="840" height="600" role="img" aria-labelledby="title desc">
  <title id="title">Weekly npm download total and daily trend for @ghostlygawd/codeweb</title>
  <desc id="desc">Daily npm package downloads from 2026-07-19 through 2026-08-28. The latest seven completed days have 112 downloads, and the displayed range has 1,223 downloads.</desc>
  <metadata>Generated by scripts/render-acquisition.mjs from npm's public downloads range API. Captured 2026-08-31. Data period: 2026-07-19 to 2026-08-28. Aggregate package-download counts only; no user-level data.</metadata>
  <rect width="840" height="600" fill="#060608"/>
  <rect x="1" y="1" width="838" height="598" fill="none" stroke="#26242C"/>
  <text x="52" y="50" fill="#8A8794" font-family="ui-monospace,SFMono-Regular,Menlo,Consolas,monospace" font-size="17" font-weight="700" letter-spacing="3">PUBLIC NPM SIGNAL</text>
  <text x="52" y="102" fill="#E8E7EE" font-family="ui-monospace,SFMono-Regular,Menlo,Consolas,monospace" font-size="42" font-weight="800">weekly downloads</text>
  <text x="52" y="138" fill="#8A8794" font-family="ui-monospace,SFMono-Regular,Menlo,Consolas,monospace" font-size="20">@ghostlygawd/codeweb · daily trend</text>
  <text x="788" y="92" text-anchor="end" fill="#C6F24E" font-family="ui-monospace,SFMono-Regular,Menlo,Consolas,monospace" font-size="58" font-weight="800">112</text>
  <text x="788" y="128" text-anchor="end" fill="#8A8794" font-family="ui-monospace,SFMono-Regular,Menlo,Consolas,monospace" font-size="17">downloads · last 7 completed days</text>
  <line x1="74" y1="186.0" x2="766" y2="186.0" stroke="#26242C" stroke-dasharray="5 8"/>
  <text x="58" y="192.0" text-anchor="end" fill="#8A8794" font-family="ui-monospace,SFMono-Regular,Menlo,Consolas,monospace" font-size="16">300</text>
  <line x1="74" y1="332.0" x2="766" y2="332.0" stroke="#26242C" stroke-dasharray="5 8"/>
  <text x="58" y="338.0" text-anchor="end" fill="#8A8794" font-family="ui-monospace,SFMono-Regular,Menlo,Consolas,monospace" font-size="16">150</text>
  <line x1="74" y1="478.0" x2="766" y2="478.0" stroke="#26242C" stroke-dasharray="0"/>
  <text x="58" y="484.0" text-anchor="end" fill="#8A8794" font-family="ui-monospace,SFMono-Regular,Menlo,Consolas,monospace" font-size="16">0</text>
  <path d="M 74.0 478 L 74.0,338.8 L 91.3,470.2 L 108.6,474.1 L 125.9,475.1 L 143.2,364.1 L 160.5,443.9 L 177.8,219.1 L 195.1,451.7 L 212.4,469.2 L 229.7,463.4 L 247.0,461.5 L 264.3,470.2 L 281.6,470.2 L 298.9,468.3 L 316.2,470.2 L 333.5,472.2 L 350.8,461.5 L 368.1,464.4 L 385.4,470.2 L 402.7,466.3 L 420.0,469.2 L 437.3,465.3 L 454.6,456.6 L 471.9,456.6 L 489.2,468.3 L 506.5,462.4 L 523.8,478.0 L 541.1,471.2 L 558.4,468.3 L 575.7,312.5 L 593.0,437.1 L 610.3,451.7 L 627.6,464.4 L 644.9,464.4 L 662.2,464.4 L 679.5,459.5 L 696.8,460.5 L 714.1,464.4 L 731.4,462.4 L 748.7,461.5 L 766.0,464.4 L 766.0 478 Z" fill="#C6F24E" fill-opacity="0.10"/>
  <polyline points="74.0,338.8 91.3,470.2 108.6,474.1 125.9,475.1 143.2,364.1 160.5,443.9 177.8,219.1 195.1,451.7 212.4,469.2 229.7,463.4 247.0,461.5 264.3,470.2 281.6,470.2 298.9,468.3 316.2,470.2 333.5,472.2 350.8,461.5 368.1,464.4 385.4,470.2 402.7,466.3 420.0,469.2 437.3,465.3 454.6,456.6 471.9,456.6 489.2,468.3 506.5,462.4 523.8,478.0 541.1,471.2 558.4,468.3 575.7,312.5 593.0,437.1 610.3,451.7 627.6,464.4 644.9,464.4 662.2,464.4 679.5,459.5 696.8,460.5 714.1,464.4 731.4,462.4 748.7,461.5 766.0,464.4" fill="none" stroke="#C6F24E" stroke-width="7" stroke-linejoin="bevel" stroke-linecap="square"/>
  <g><title>2026-07-19: 143 downloads</title><rect x="69.0" y="333.8" width="10" height="10" fill="#C6F24E"/></g>
  <g><title>2026-07-20: 8 downloads</title><rect x="86.3" y="465.2" width="10" height="10" fill="#C6F24E"/></g>
  <g><title>2026-07-21: 4 downloads</title><rect x="103.6" y="469.1" width="10" height="10" fill="#C6F24E"/></g>
  <g><title>2026-07-22: 3 downloads</title><rect x="120.9" y="470.1" width="10" height="10" fill="#C6F24E"/></g>
  <g><title>2026-07-23: 117 downloads</title><rect x="138.2" y="359.1" width="10" height="10" fill="#C6F24E"/></g>
  <g><title>2026-07-24: 35 downloads</title><rect x="155.5" y="438.9" width="10" height="10" fill="#C6F24E"/></g>
  <g><title>2026-07-25: 266 downloads</title><rect x="172.8" y="214.1" width="10" height="10" fill="#C6F24E"/></g>
  <g><title>2026-07-26: 27 downloads</title><rect x="190.1" y="446.7" width="10" height="10" fill="#C6F24E"/></g>
  <g><title>2026-07-27: 9 downloads</title><rect x="207.4" y="464.2" width="10" height="10" fill="#C6F24E"/></g>
  <g><title>2026-07-28: 15 downloads</title><rect x="224.7" y="458.4" width="10" height="10" fill="#C6F24E"/></g>
  <g><title>2026-07-29: 17 downloads</title><rect x="242.0" y="456.5" width="10" height="10" fill="#C6F24E"/></g>
  <g><title>2026-07-30: 8 downloads</title><rect x="259.3" y="465.2" width="10" height="10" fill="#C6F24E"/></g>
  <g><title>2026-07-31: 8 downloads</title><rect x="276.6" y="465.2" width="10" height="10" fill="#C6F24E"/></g>
  <g><title>2026-08-01: 10 downloads</title><rect x="293.9" y="463.3" width="10" height="10" fill="#C6F24E"/></g>
  <g><title>2026-08-02: 8 downloads</title><rect x="311.2" y="465.2" width="10" height="10" fill="#C6F24E"/></g>
  <g><title>2026-08-03: 6 downloads</title><rect x="328.5" y="467.2" width="10" height="10" fill="#C6F24E"/></g>
  <g><title>2026-08-04: 17 downloads</title><rect x="345.8" y="456.5" width="10" height="10" fill="#C6F24E"/></g>
  <g><title>2026-08-05: 14 downloads</title><rect x="363.1" y="459.4" width="10" height="10" fill="#C6F24E"/></g>
  <g><title>2026-08-06: 8 downloads</title><rect x="380.4" y="465.2" width="10" height="10" fill="#C6F24E"/></g>
  <g><title>2026-08-07: 12 downloads</title><rect x="397.7" y="461.3" width="10" height="10" fill="#C6F24E"/></g>
  <g><title>2026-08-08: 9 downloads</title><rect x="415.0" y="464.2" width="10" height="10" fill="#C6F24E"/></g>
  <g><title>2026-08-09: 13 downloads</title><rect x="432.3" y="460.3" width="10" height="10" fill="#C6F24E"/></g>
  <g><title>2026-08-10: 22 downloads</title><rect x="449.6" y="451.6" width="10" height="10" fill="#C6F24E"/></g>
  <g><title>2026-08-11: 22 downloads</title><rect x="466.9" y="451.6" width="10" height="10" fill="#C6F24E"/></g>
  <g><title>2026-08-12: 10 downloads</title><rect x="484.2" y="463.3" width="10" height="10" fill="#C6F24E"/></g>
  <g><title>2026-08-13: 16 downloads</title><rect x="501.5" y="457.4" width="10" height="10" fill="#C6F24E"/></g>
  <g><title>2026-08-14: 0 downloads</title><rect x="518.8" y="473.0" width="10" height="10" fill="#C6F24E"/></g>
  <g><title>2026-08-15: 7 downloads</title><rect x="536.1" y="466.2" width="10" height="10" fill="#C6F24E"/></g>
  <g><title>2026-08-16: 10 downloads</title><rect x="553.4" y="463.3" width="10" height="10" fill="#C6F24E"/></g>
  <g><title>2026-08-17: 170 downloads</title><rect x="570.7" y="307.5" width="10" height="10" fill="#C6F24E"/></g>
  <g><title>2026-08-18: 42 downloads</title><rect x="588.0" y="432.1" width="10" height="10" fill="#C6F24E"/></g>
  <g><title>2026-08-19: 27 downloads</title><rect x="605.3" y="446.7" width="10" height="10" fill="#C6F24E"/></g>
  <g><title>2026-08-20: 14 downloads</title><rect x="622.6" y="459.4" width="10" height="10" fill="#C6F24E"/></g>
  <g><title>2026-08-21: 14 downloads</title><rect x="639.9" y="459.4" width="10" height="10" fill="#C6F24E"/></g>
  <g><title>2026-08-22: 14 downloads</title><rect x="657.2" y="459.4" width="10" height="10" fill="#C6F24E"/></g>
  <g><title>2026-08-23: 19 downloads</title><rect x="674.5" y="454.5" width="10" height="10" fill="#C6F24E"/></g>
  <g><title>2026-08-24: 18 downloads</title><rect x="691.8" y="455.5" width="10" height="10" fill="#C6F24E"/></g>
  <g><title>2026-08-25: 14 downloads</title><rect x="709.1" y="459.4" width="10" height="10" fill="#C6F24E"/></g>
  <g><title>2026-08-26: 16 downloads</title><rect x="726.4" y="457.4" width="10" height="10" fill="#C6F24E"/></g>
  <g><title>2026-08-27: 17 downloads</title><rect x="743.7" y="456.5" width="10" height="10" fill="#C6F24E"/></g>
  <g><title>2026-08-28: 14 downloads</title><rect x="759.0" y="457.4" width="14" height="14" fill="#C6F24E"/></g>
  <text x="74" y="512" fill="#8A8794" font-family="ui-monospace,SFMono-Regular,Menlo,Consolas,monospace" font-size="18">2026-07-19</text>
  <text x="766" y="512" text-anchor="end" fill="#E8E7EE" font-family="ui-monospace,SFMono-Regular,Menlo,Consolas,monospace" font-size="18" font-weight="700">2026-08-28</text>
  <text x="52" y="552" fill="#E8E7EE" font-family="ui-monospace,SFMono-Regular,Menlo,Consolas,monospace" font-size="22" font-weight="700">1,223 downloads across 41 completed days shown</text>
  <text x="52" y="582" fill="#8A8794" font-family="ui-monospace,SFMono-Regular,Menlo,Consolas,monospace" font-size="16">through 2026-08-28 · public npm API · package retrievals, not users · refreshed weekly</text>
</svg>
